opsz144.ufo
<glyph name="B" format="2">
	<unicode hex="0042"/>
	<advance width="1200"/>
	<outline>
		<contour>
			<point x="-70.0612182617" y="0" type="line"/>
			<point x="-50.6210327148" y="101.0009765625" type="line"/>
			<point x="138.4416503906" y="116.0009765625" type="line"/>
			<point x="286.0014648438" y="784" type="line"/>
			<point x="386" y="1362" type="line"/>
			<point x="193" y="1386" type="line"/>
			<point x="206" y="1500" type="line"/>
			<point x="784.7487792969" y="1500" type="line" smooth="yes"/>
			<point x="978.0532226562" y="1500"/>
			<point x="1154.2912597656" y="1316"/>
			<point x="1131.1455078125" y="1175" type="qcurve" smooth="yes"/>
			<point x="1107.8143310547" y="1032"/>
			<point x="901.728515625" y="856"/>
			<point x="779.9471435547" y="828" type="qcurve"/>
			<point x="778.3179931641" y="821" type="line"/>
			<point x="921.0596923828" y="787"/>
			<point x="1084.2580566406" y="579"/>
			<point x="1051.0726318359" y="414" type="qcurve" smooth="yes"/>
			<point x="1012.8872070312" y="224"/>
			<point x="704.7552490234" y="0"/>
			<point x="491.5965576172" y="0" type="qcurve" smooth="yes"/>
		</contour>
		<contour>
			<point x="309.0013427734" y="121.3327026367" type="line"/>
			<point x="343.7855834961" y="104.2215576172" type="line"/>
			<point x="456.9904174805" y="104.2215576172" type="line" smooth="yes"/>
			<point x="626.9434204102" y="104.2215576172"/>
			<point x="835.1851806641" y="214"/>
			<point x="879.0726318359" y="426" type="qcurve" smooth="yes"/>
			<point x="915.9600830078" y="606"/>
			<point x="770.5806884766" y="758.1115112305"/>
			<point x="640.2633056641" y="758.1115112305" type="qcurve" smooth="yes"/>
			<point x="444.6682128906" y="758.1115112305" type="line"/>
			<point x="442.2237548828" y="748.2225952148" type="line"/>
		</contour>
		<contour>
			<point x="468.075012207" y="875.888671875" type="line"/>
			<point x="465.4083251953" y="869.3330078125" type="line"/>
			<point x="619.6989746094" y="869.3330078125" type="line" smooth="yes"/>
			<point x="747.2746582031" y="869.3330078125"/>
			<point x="937.5560302734" y="1016"/>
			<point x="963.1455078125" y="1178" type="qcurve" smooth="yes"/>
			<point x="987.9204101562" y="1334"/>
			<point x="832.0880126953" y="1378.1118774414"/>
			<point x="709.3997802734" y="1379.1118774414" type="qcurve" smooth="yes"/>
			<point x="578" y="1380" type="line"/>
			<point x="549" y="1362" type="line"/>
		</contour>
	</outline>
	<anchor name="bottom" x="630" y="0"/>
	<anchor name="top" x="630" y="1500"/>
</glyph>
<glyph name="E" format="2">
	<unicode hex="0045"/>
	<advance width="1151"/>
	<outline>
		<contour>
			<point x="-67.490234375" y="0" type="line"/>
			<point x="-48.2022094727" y="101.0009765625" type="line"/>
			<point x="140.3388671875" y="116.0009765625" type="line"/>
			<point x="286.8986816406" y="784" type="line"/>
			<point x="414.0185546875" y="1373.3588867188" type="line"/>
			<point x="228.8907470703" y="1387.3588867188" type="line"/>
			<point x="242.5535888672" y="1500" type="line"/>
			<point x="1190.4071044922" y="1500" type="line"/>
			<point x="1108.9309692383" y="1108.5294799805" type="line"/>
			<point x="1010.6538696289" y="1108.5294799805" type="line"/>
			<point x="960.7968139648" y="1383.6674194336" type="line"/>
			<point x="601.5654907227" y="1383.6674194336" type="line"/>
			<point x="574.5654907227" y="1365.6674194336" type="line"/>
			<point x="448.8986816406" y="784" type="line"/>
			<point x="309.4541015625" y="123.5548706055" type="line"/>
			<point x="334.4541015625" y="106.5548706055" type="line"/>
			<point x="744.7432250977" y="106.5548706055" type="line"/>
			<point x="956.9930419922" y="413.6928100586" type="line"/>
			<point x="1054.9901123047" y="413.6928100586" type="line"/>
			<point x="931.1848754883" y="0" type="line"/>
		</contour>
		<contour>
			<point x="350.6765136719" y="758.1113891602" type="line"/>
			<point x="368.3430786133" y="847.9997558594" type="line"/>
			<point x="733.7600708008" y="861.9996948242" type="line"/>
			<point x="844.9362792969" y="1007.1376342773" type="line"/>
			<point x="950.1330566406" y="1007.1376342773" type="line"/>
			<point x="854.4474487305" y="554.7513427734" type="line"/>
			<point x="756.450378418" y="554.7513427734" type="line"/>
			<point x="716.4043579102" y="737.8892822266" type="line"/>
		</contour>
	</outline>
	<anchor name="bottom" x="518" y="0"/>
	<anchor name="ogonek" x="827" y="0"/>
	<anchor name="top" x="789" y="1500"/>
	<anchor name="tonos" x="81" y="1500"/>
</glyph>
<glyph name="F" format="2">
	<unicode hex="0046"/>
	<advance width="1009"/>
	<outline>
		<contour>
			<point x="-71.9815673828" y="0" type="line"/>
			<point x="-52.5413818359" y="101.0009765625" type="line"/>
			<point x="135.9118652344" y="116.0009765625" type="line"/>
			<point x="278.7116699219" y="767" type="line"/>
			<point x="405.9914550781" y="1372.3588867188" type="line"/>
			<point x="225.2253417969" y="1384.3588867188" type="line"/>
			<point x="239.7360229492" y="1500" type="line"/>
			<point x="1125.3002929688" y="1500" type="line"/>
			<point x="1059.0837402344" y="1186.3482666016" type="line"/>
			<point x="970.2863769531" y="1186.3482666016" type="line"/>
			<point x="909.7252807617" y="1391.4451293945" type="line"/>
			<point x="615.9340209961" y="1391.4451293945" type="line"/>
			<point x="574.9340209961" y="1380.4451293945" type="line"/>
			<point x="441.7116699219" y="767" type="line"/>
			<point x="303.9118652344" y="121.0009765625" type="line"/>
			<point x="524.7142333984" y="101.0009765625" type="line"/>
			<point x="505.4262084961" y="0" type="line"/>
		</contour>
		<contour>
			<point x="332" y="751" type="line"/>
			<point x="351" y="851" type="line"/>
			<point x="684.8789672852" y="842.7774047852" type="line"/>
			<point x="778.3510742188" y="959.1379394531" type="line"/>
			<point x="876.3481445312" y="959.1379394531" type="line"/>
			<point x="793.1443481445" y="565.8620605469" type="line"/>
			<point x="695.147277832" y="565.8620605469" type="line"/>
			<point x="659.7680053711" y="719.0003662109" type="line"/>
		</contour>
	</outline>
	<anchor name="bottom" x="578" y="0"/>
	<anchor name="top" x="622" y="1500"/>
</glyph>
<glyph name="H" format="2">
	<unicode hex="0048"/>
	<advance width="1610"/>
	<outline>
		<contour>
			<point x="-68.5448608398" y="0" type="line"/>
			<point x="-49.104675293" y="101.0009765625" type="line"/>
			<point x="138.7407226562" y="116.0009765625" type="line"/>
			<point x="288.3005371094" y="794" type="line"/>
			<point x="408.0603027344" y="1364.9987792969" type="line"/>
			<point x="228.0526123047" y="1383.5988769531" type="line"/>
			<point x="241.4989624023" y="1500" type="line"/>
			<point x="797.2382202148" y="1500" type="line"/>
			<point x="774.6701660156" y="1383.5988769531" type="line"/>
			<point x="574.7612304688" y="1364.9987792969" type="line"/>
			<point x="444.3005371094" y="768" type="line"/>
			<point x="305.7407226562" y="116.0009765625" type="line"/>
			<point x="497.8119506836" y="101.0009765625" type="line"/>
			<point x="487.4934692383" y="0" type="line"/>
		</contour>
		<contour>
			<point x="346" y="738" type="line"/>
			<point x="367" y="855" type="line"/>
			<point x="827.3698120117" y="841.6662597656" type="line"/>
			<point x="1269.5167236328" y="847.77734375" type="line"/>
			<point x="1246.1835327148" y="730.2225341797" type="line"/>
			<point x="806.5921630859" y="733.3336181641" type="line"/>
		</contour>
		<contour>
			<point x="822.6371459961" y="0" type="line"/>
			<point x="842.077331543" y="101.0009765625" type="line"/>
			<point x="1026.9227294922" y="116.0009765625" type="line"/>
			<point x="1172.4825439453" y="764" type="line"/>
			<point x="1296.2423095703" y="1364.9987792969" type="line"/>
			<point x="1119.2346191406" y="1383.5988769531" type="line"/>
			<point x="1132.6809692383" y="1500" type="line"/>
			<point x="1675.5671386719" y="1500" type="line"/>
			<point x="1652.9990844727" y="1383.5988769531" type="line"/>
			<point x="1463.2423095703" y="1364.9987792969" type="line"/>
			<point x="1330.4825439453" y="748" type="line"/>
			<point x="1193.9227294922" y="116.0009765625" type="line"/>
			<point x="1375.841796875" y="101.0009765625" type="line"/>
			<point x="1365.5233154297" y="0" type="line"/>
		</contour>
	</outline>
	<anchor name="bottom" x="607" y="0"/>
	<anchor name="center" x="820" y="1079"/>
	<anchor name="top" x="950" y="1500"/>
	<anchor name="tonos" x="81" y="1500"/>
	<anchor name="cy_descender" x="1399" y="100"/>
</glyph>
<glyph name="J" format="2">
	<unicode hex="004A"/>
	<advance width="791"/>
	<outline>
		<contour>
			<point x="-185" y="-225" type="qcurve"/>
			<point x="-151" y="-103" type="line"/>
			<point x="-131" y="-110"/>
			<point x="-56" y="-128"/>
			<point x="2" y="-128" type="qcurve" smooth="yes"/>
			<point x="80" y="-128"/>
			<point x="170" y="-1"/>
			<point x="192" y="112" type="qcurve" smooth="yes"/>
			<point x="343.2131347656" y="754" type="line"/>
			<point x="471.4929199219" y="1373.3588867188" type="line"/>
			<point x="266.7706298828" y="1384.3588867188" type="line"/>
			<point x="281.1291503906" y="1500" type="line"/>
			<point x="850.6890869141" y="1500" type="line"/>
			<point x="836.3305664062" y="1384.3588867188" type="line"/>
			<point x="638.4929199219" y="1373.3588867188" type="line"/>
			<point x="506.2131347656" y="754" type="line"/>
			<point x="370" y="204" type="line" smooth="yes"/>
			<point x="322" y="-38"/>
			<point x="152" y="-260"/>
			<point x="28" y="-260" type="qcurve" smooth="yes"/>
			<point x="-44" y="-260"/>
			<point x="-165" y="-237"/>
		</contour>
	</outline>
	<anchor name="bottom" x="376" y="-208"/>
	<anchor name="top" x="533" y="1500"/>
	<anchor name="_liga" x="0" y="0"/>
</glyph>
<glyph name="K" format="2">
	<unicode hex="004B"/>
	<advance width="1175"/>
	<outline>
		<contour>
			<point x="-60.9395141602" y="0" type="line"/>
			<point x="-50.6210327148" y="101.0009765625" type="line"/>
			<point x="139.4416503906" y="116.0009765625" type="line"/>
			<point x="286.6015625" y="754" type="line"/>
			<point x="422.7214355469" y="1373.3588867188" type="line"/>
			<point x="234.7457885742" y="1384.3588867188" type="line"/>
			<point x="249.104309082" y="1500" type="line"/>
			<point x="790.1645507812" y="1500" type="line"/>
			<point x="775.8060302734" y="1384.3588867188" type="line"/>
			<point x="588.7214355469" y="1373.3588867188" type="line"/>
			<point x="445.6015625" y="740" type="line"/>
			<point x="311" y="124" type="line"/>
			<point x="491.200012207" y="101.0009765625" type="line"/>
			<point x="480.8815307617" y="0" type="line"/>
		</contour>
		<contour>
			<point x="303" y="540" type="line"/>
			<point x="331" y="693" type="line"/>
			<point x="1055.1560058594" y="1366.3588867188" type="line"/>
			<point x="853.2661743164" y="1384.3588867188" type="line"/>
			<point x="867.6246948242" y="1500" type="line"/>
			<point x="1431.9462890625" y="1500" type="line"/>
			<point x="1417.5877685547" y="1384.3588867188" type="line"/>
			<point x="1222.1550292969" y="1365.3588867188" type="line"/>
		</contour>
		<contour>
			<point x="589" y="874" type="line"/>
			<point x="717" y="993" type="line"/>
			<point x="996.63671875" y="117.0009765625" type="line"/>
			<point x="1135.8302612305" y="101.0009765625" type="line"/>
			<point x="1125.5117797852" y="0" type="line"/>
			<point x="647.6243896484" y="0" type="line"/>
			<point x="657.9428710938" y="101.0009765625" type="line"/>
			<point x="875" y="124" type="line"/>
		</contour>
	</outline>
	<anchor name="bottom" x="607" y="0"/>
	<anchor name="top" x="896" y="1500"/>
	<anchor name="kai_tail" x="1201" y="100"/>
</glyph>
<glyph name="L" format="2">
	<unicode hex="004C"/>
	<advance width="1192"/>
	<outline>
		<contour>
			<point x="-65.4019775391" y="0" type="line"/>
			<point x="-54.1713256836" y="101.0009765625" type="line"/>
			<point x="134.8913574219" y="116.0009765625" type="line"/>
			<point x="288.5712890625" y="754" type="line"/>
			<point x="419.1711425781" y="1373.1188964844" type="line"/>
			<point x="229.5217285156" y="1385.1188964844" type="line"/>
			<point x="243.1202392578" y="1500" type="line"/>
			<point x="817.2017822266" y="1500" type="line"/>
			<point x="803.6032714844" y="1385.1188964844" type="line"/>
			<point x="586.1711425781" y="1373.1188964844" type="line"/>
			<point x="447.5712890625" y="754" type="line"/>
			<point x="302.0065917969" y="117.5548706055" type="line"/>
			<point x="351.0065917969" y="106.5548706055" type="line"/>
			<point x="786.6519165039" y="106.5548706055" type="line"/>
			<point x="1026.1126098633" y="427.8179931641" type="line"/>
			<point x="1134.0293579102" y="427.8179931641" type="line"/>
			<point x="974.4578857422" y="0" type="line"/>
		</contour>
	</outline>
	<anchor name="bottom" x="535" y="0"/>
	<anchor name="centerright" x="755" y="750"/>
	<anchor name="top" x="878" y="1500"/>
	<anchor name="topright" x="804" y="1001"/>
	<anchor name="center" x="397" y="750"/>
	<anchor name="liga" x="1104" y="0"/>
</glyph>
<glyph name="M" format="2">
	<unicode hex="004D"/>
	<advance width="1798"/>
	<outline>
		<contour>
			<point x="-79.2794189453" y="0" type="line"/>
			<point x="-68.9609375" y="101.0009765625" type="line"/>
			<point x="155.6452636719" y="121.0009765625" type="line"/>
			<point x="301.2340698242" y="747" type="line"/>
			<point x="428.9250488281" y="1369.3588867188" type="line"/>
			<point x="217.7753295898" y="1384.3588867188" type="line"/>
			<point x="232.1338500977" y="1500" type="line"/>
			<point x="716.7208862305" y="1500" type="line"/>
			<point x="777.663269043" y="825.6248779297" type="line"/>
			<point x="815" y="327" type="line"/>
			<point x="831" y="213" type="line"/>
			<point x="841" y="213" type="line"/>
			<point x="900" y="327" type="line"/>
			<point x="1119.1111450195" y="905.9791870117" type="line"/>
			<point x="1374.7805786133" y="1500" type="line"/>
			<point x="1857.7027587891" y="1500" type="line"/>
			<point x="1836.046875" y="1384.3588867188" type="line"/>
			<point x="1646.8971557617" y="1372.3588867188" type="line"/>
			<point x="1510.8573608398" y="751" type="line"/>
			<point x="1368.6974487305" y="116.0009765625" type="line"/>
			<point x="1567.3687744141" y="101.0009765625" type="line"/>
			<point x="1557.0502929688" y="0" type="line"/>
			<point x="988.9468383789" y="0" type="line"/>
			<point x="999.2653198242" y="101.0009765625" type="line"/>
			<point x="1201.6974487305" y="116.0009765625" type="line"/>
			<point x="1347.8573608398" y="751" type="line"/>
			<point x="1580" y="1244" type="line"/>
			<point x="1606" y="1363" type="line"/>
			<point x="1597" y="1365" type="line"/>
			<point x="1539" y="1258" type="line"/>
			<point x="1204.2348632812" y="833.6904296875" type="line"/>
			<point x="819.8192138672" y="-6" type="line"/>
			<point x="698.7084350586" y="-6" type="line"/>
			<point x="628.0383911133" y="756.9774169922" type="line"/>
			<point x="499" y="1249" type="line"/>
			<point x="485" y="1357" type="line"/>
			<point x="474" y="1355" type="line"/>
			<point x="456" y="1235" type="line"/>
			<point x="410.693359375" y="747" type="line"/>
			<point x="277.911315918" y="121.0009765625" type="line"/>
			<point x="505.1912841797" y="101.0009765625" type="line"/>
			<point x="485.7510986328" y="0" type="line"/>
		</contour>
	</outline>
	<anchor name="bottom" x="768" y="0"/>
	<anchor name="top" x="1048" y="1500"/>
</glyph>
<glyph name="N" format="2">
	<unicode hex="004E"/>
	<advance width="1484"/>
	<outline>
		<contour>
			<point x="-81.8294067383" y="0" type="line"/>
			<point x="-71.510925293" y="101.0009765625" type="line"/>
			<point x="147.5517578125" y="123.0009765625" type="line"/>
			<point x="289.7116699219" y="753" type="line"/>
			<point x="426.8315429688" y="1373.3588867188" type="line"/>
			<point x="215.3775024414" y="1384.3588867188" type="line"/>
			<point x="229.7360229492" y="1500" type="line"/>
			<point x="656.4902954102" y="1500" type="line"/>
			<point x="832.3080444336" y="832.1480712891" type="line"/>
			<point x="938.8941650391" y="394.5003662109" type="line"/>
			<point x="969.6288452148" y="272.8133544922" type="line"/>
			<point x="970.6288452148" y="272.8133544922" type="line"/>
			<point x="997.8510742188" y="401.8133544922" type="line"/>
			<point x="1073.8284301758" y="756" type="line"/>
			<point x="1204.4282836914" y="1366.5988769531" type="line"/>
			<point x="954.2353515625" y="1383.5988769531" type="line"/>
			<point x="970.5703735352" y="1500" type="line"/>
			<point x="1554.8953857422" y="1500" type="line"/>
			<point x="1538.5603637695" y="1383.5988769531" type="line"/>
			<point x="1314.6498413086" y="1366.5988769531" type="line"/>
			<point x="1179.049987793" y="753" type="line"/>
			<point x="1024.049987793" y="0" type="line"/>
			<point x="891.383605957" y="0" type="line"/>
			<point x="673.1538696289" y="800.7670288086" type="line"/>
			<point x="548.6214599609" y="1288.4866943359" type="line"/>
			<point x="526.9333496094" y="1389.3338012695" type="line"/>
			<point x="525.9333496094" y="1389.3338012695" type="line"/>
			<point x="507.8222045898" y="1285.3338012695" type="line"/>
			<point x="391.155456543" y="741" type="line"/>
			<point x="258.9955444336" y="123.0009765625" type="line"/>
			<point x="509.8190307617" y="101.0009765625" type="line"/>
			<point x="499.5005493164" y="0" type="line"/>
		</contour>
	</outline>
	<anchor name="bottom" x="640" y="0"/>
	<anchor name="top" x="884" y="1500"/>
	<anchor name="engtail" x="1041" y="0"/>
	<anchor name="liga" x="1432" y="0"/>
</glyph>
<glyph name="Q" format="2">
	<unicode hex="0051"/>
	<advance width="1508"/>
	<outline>
		<contour>
			<point x="89.2318725586" y="823" type="qcurve" smooth="yes"/>
			<point x="192.2318725586" y="1186"/>
			<point x="727.1389160156" y="1572.3556518555"/>
			<point x="1034.6600341797" y="1518.8578491211" type="qcurve" smooth="yes"/>
			<point x="1288.879699707" y="1475.341796875"/>
			<point x="1515.2345581055" y="1045"/>
			<point x="1409.0382080078" y="670" type="qcurve" smooth="yes"/>
			<point x="1305.8418579102" y="307"/>
			<point x="794.3470458984" y="-68.5877685547"/>
			<point x="491.9310302734" y="-15.286315918" type="qcurve" smooth="yes"/>
			<point x="242.4237670898" y="28.4260864258"/>
			<point x="-16.7681274414" y="448"/>
		</contour>
		<contour>
			<point x="257.2318725586" y="779" type="qcurve" smooth="yes"/>
			<point x="173.6298828125" y="492.6331787109"/>
			<point x="333.5459594727" y="139.3890991211"/>
			<point x="526.1271972656" y="103.3796386719" type="qcurve" smooth="yes"/>
			<point x="750.0543823242" y="62.6276855469"/>
			<point x="1151.7924804688" y="408.3633422852"/>
			<point x="1241.0382080078" y="714" type="qcurve" smooth="yes"/>
			<point x="1323.7248535156" y="997.9259033203"/>
			<point x="1171.9968261719" y="1354.9229125977"/>
			<point x="978.524597168" y="1389.080871582" type="qcurve" smooth="yes"/>
			<point x="757.4188842773" y="1428.5358276367"/>
			<point x="346.4188232422" y="1087.9929199219"/>
		</contour>
		<contour>
			<point x="308.6712036133" y="-41.9861450195" type="qcurve"/>
			<point x="322.2602539062" y="-53.2737426758" type="line"/>
			<point x="813.8374633789" y="-238.4525146484" type="line" smooth="yes"/>
			<point x="942.8805541992" y="-282.171081543"/>
			<point x="1109.9979248047" y="-205.1836547852"/>
			<point x="1180.7180175781" y="-124.2870483398" type="qcurve"/>
			<point x="1253.4359741211" y="-182.7904663086" type="line"/>
			<point x="1193.7235717773" y="-280.9138183594"/>
			<point x="1015.6776123047" y="-393.4525146484"/>
			<point x="919.6776123047" y="-418.4525146484" type="qcurve"/>
			<point x="284.6712036133" y="-182.9861450195" type="line"/>
			<point x="241.3801269531" y="-180.5186157227"/>
			<point x="122.5486450195" y="-224.4560546875"/>
			<point x="36.7753295898" y="-298.711730957" type="qcurve"/>
			<point x="-12.2426147461" y="-226.5934448242" type="line"/>
			<point x="34.8077392578" y="-174.7897949219"/>
			<point x="216.0135498047" y="-56.6481933594"/>
		</contour>
		<contour>
			<point x="230.9528198242" y="-40.1414794922" type="line"/>
			<point x="324.7260131836" y="-1.8176269531"/>
			<point x="520.2606811523" y="115.7655639648"/>
			<point x="604.9321289062" y="216.700378418" type="qcurve" smooth="yes"/>
			<point x="601.4953613281" y="211.1372680664"/>
			<point x="600.999206543" y="207.9180908203"/>
			<point x="608.262512207" y="213.2514038086" type="qcurve"/>
			<point x="633.9213867188" y="199.7065429688"/>
			<point x="671.4537963867" y="165.8908691406"/>
			<point x="686.0016479492" y="150.9944458008" type="qcurve"/>
			<point x="683.0457763672" y="145.4906616211"/>
			<point x="680.2268676758" y="143.0279541016"/>
			<point x="682.3044433594" y="147.4282226562" type="qcurve" smooth="yes"/>
			<point x="608.3925170898" y="55.3944702148"/>
			<point x="431.2658081055" y="-45.7244873047"/>
			<point x="340.259765625" y="-79.6633300781" type="qcurve"/>
		</contour>
	</outline>
	<anchor name="bottom" x="832" y="0"/>
	<anchor name="top" x="832" y="1500"/>
</glyph>
<glyph name="T" format="2">
	<unicode hex="0054"/>
	<advance width="1157"/>
	<outline>
		<contour>
			<point x="116.4443359375" y="1100.663269043" type="line"/>
			<point x="197.1702880859" y="1500" type="line"/>
			<point x="1273.2608642578" y="1500" type="line"/>
			<point x="1192.5349121094" y="1100.663269043" type="line"/>
			<point x="1093.5378417969" y="1100.663269043" type="line"/>
			<point x="1119.9291381836" y="1384.6674194336" type="line"/>
			<point x="818.7366333008" y="1384.6674194336" type="line"/>
			<point x="791.7366333008" y="1372.6674194336" type="line"/>
			<point x="661.0698242188" y="754" type="line"/>
			<point x="528.2700195312" y="119.0009765625" type="line"/>
			<point x="717.1255493164" y="101.0009765625" type="line"/>
			<point x="707.7192382812" y="0" type="line"/>
			<point x="127.072265625" y="0" type="line"/>
			<point x="136.4785766602" y="101.0009765625" type="line"/>
			<point x="361.2700195312" y="119.0009765625" type="line"/>
			<point x="498.0698242188" y="754" type="line"/>
			<point x="629.7366333008" y="1372.6674194336" type="line"/>
			<point x="612.7366333008" y="1384.6674194336" type="line"/>
			<point x="296.8356323242" y="1384.6674194336" type="line"/>
			<point x="215.44140625" y="1100.663269043" type="line"/>
		</contour>
	</outline>
	<anchor name="bottom" x="451" y="0"/>
	<anchor name="center" x="584" y="750"/>
	<anchor name="top" x="732" y="1500"/>
	<anchor name="cy_descender" x="755" y="100"/>
</glyph>
<glyph name="V" format="2">
	<unicode hex="0056"/>
	<advance width="1154"/>
	<outline>
		<contour>
			<point x="61.8892822266" y="1386.3588867188" type="line"/>
			<point x="82.5451660156" y="1500" type="line"/>
			<point x="570.4976806641" y="1500" type="line"/>
			<point x="549.841796875" y="1386.3588867188" type="line"/>
			<point x="383.3447265625" y="1374.3588867188" type="line"/>
			<point x="438.5537109375" y="835.7615966797" type="line"/>
			<point x="473.2144775391" y="452.1810913086" type="line"/>
			<point x="482.9253540039" y="272.8943481445" type="line"/>
			<point x="488.9253540039" y="271.8943481445" type="line"/>
			<point x="578.2155761719" y="452.0592651367" type="line"/>
			<point x="797.6779785156" y="865.3413085938" type="line"/>
			<point x="1078.8897094727" y="1370.3588867188" type="line"/>
			<point x="860.6232910156" y="1386.3588867188" type="line"/>
			<point x="873.9818115234" y="1500" type="line"/>
			<point x="1436.8069458008" y="1500" type="line"/>
			<point x="1424.2261962891" y="1386.3588867188" type="line"/>
			<point x="1199.2796020508" y="1368.3588867188" type="line"/>
			<point x="889.0840454102" y="802.7171630859" type="line"/>
			<point x="462.975402832" y="-7.1430664062" type="line"/>
			<point x="348.7544555664" y="-7.1430664062" type="line"/>
			<point x="272.1380615234" y="771.6143798828" type="line"/>
			<point x="215.3447265625" y="1373.3588867188" type="line"/>
		</contour>
	</outline>
	<anchor name="bottom" x="373" y="0"/>
	<anchor name="top" x="743" y="1500"/>
</glyph>
<glyph name="W" format="2">
	<unicode hex="0057"/>
	<advance width="1587"/>
	<outline>
		<contour>
			<point x="36.5660400391" y="1386.3588867188" type="line"/>
			<point x="59.9584350586" y="1500" type="line"/>
			<point x="553.9931640625" y="1500" type="line"/>
			<point x="530.600769043" y="1386.3588867188" type="line"/>
			<point x="353.0158691406" y="1372.3588867188" type="line"/>
			<point x="406.2529907227" y="834.0922851562" type="line"/>
			<point x="410" y="400" type="line"/>
			<point x="410" y="271" type="line"/>
			<point x="427" y="271" type="line"/>
			<point x="497" y="400" type="line"/>
			<point x="602.7152709961" y="679.8569335938" type="line"/>
			<point x="913" y="1121" type="line"/>
			<point x="759.9093017578" y="1379.4389648438" type="line"/>
			<point x="618.6938476562" y="1398.4389648438" type="line"/>
			<point x="637.6540527344" y="1500" type="line"/>
			<point x="1120.8699951172" y="1500" type="line"/>
			<point x="1102.2141113281" y="1392.3588867188" type="line"/>
			<point x="920.2378540039" y="1373.3588867188" type="line"/>
			<point x="957.7499389648" y="748.7596435547" type="line"/>
			<point x="1094" y="400" type="line"/>
			<point x="1094" y="271" type="line"/>
			<point x="1111" y="271" type="line"/>
			<point x="1177" y="400" type="line"/>
			<point x="1256.5083007812" y="856.9725952148" type="line"/>
			<point x="1471.7235717773" y="1369.3588867188" type="line"/>
			<point x="1243.0522460938" y="1386.3588867188" type="line"/>
			<point x="1256.4107666016" y="1500" type="line"/>
			<point x="1859.4211425781" y="1500" type="line"/>
			<point x="1972" y="1385" type="line"/>
			<point x="1616.477722168" y="1367.5988769531" type="line"/>
			<point x="1362.0811767578" y="808.7219848633" type="line"/>
			<point x="980.091796875" y="-7.1430664062" type="line"/>
			<point x="848.7529296875" y="-7.1430664062" type="line"/>
			<point x="923" y="805" type="line"/>
			<point x="921" y="934" type="line"/>
			<point x="911" y="934" type="line"/>
			<point x="844" y="805" type="line"/>
			<point x="437.8441162109" y="-7.1430664062" type="line"/>
			<point x="309.7644042969" y="-7.1430664062" type="line"/>
			<point x="244.2529907227" y="820.0922851562" type="line"/>
			<point x="188.8247070312" y="1373.3588867188" type="line"/>
		</contour>
	</outline>
	<anchor name="bottom" x="691" y="0"/>
	<anchor name="top" x="981" y="1500"/>
</glyph>
<glyph name="X" format="2">
	<unicode hex="0058"/>
	<advance width="1066"/>
	<outline>
		<contour>
			<point x="-258.6509399414" y="0" type="line"/>
			<point x="-248.3324584961" y="101.0009765625" type="line"/>
			<point x="-45.8997192383" y="123.0009765625" type="line"/>
			<point x="513" y="764" type="line"/>
			<point x="243.8356933594" y="1373.3588867188" type="line"/>
			<point x="106.7072753906" y="1383.3588867188" type="line"/>
			<point x="121.0657958984" y="1500" type="line"/>
			<point x="591.8661499023" y="1500" type="line"/>
			<point x="577.5076293945" y="1383.3588867188" type="line"/>
			<point x="415.8356933594" y="1373.3588867188" type="line"/>
			<point x="581" y="1027" type="line"/>
			<point x="627" y="913" type="line"/>
			<point x="638" y="913" type="line"/>
			<point x="724" y="1027" type="line"/>
			<point x="910.4268798828" y="1369.3588867188" type="line"/>
			<point x="691.2333374023" y="1384.3588867188" type="line"/>
			<point x="705.5918579102" y="1500" type="line"/>
			<point x="1273.0267333984" y="1500" type="line"/>
			<point x="1258.6682128906" y="1384.3588867188" type="line"/>
			<point x="1045.7138671875" y="1368.3588867188" type="line"/>
			<point x="670" y="808" type="line"/>
			<point x="853.8229980469" y="116.0009765625" type="line"/>
			<point x="999.1687011719" y="101.0009765625" type="line"/>
			<point x="988.8502197266" y="0" type="line"/>
			<point x="500.6804199219" y="0" type="line"/>
			<point x="510.9989013672" y="101.0009765625" type="line"/>
			<point x="682.8229980469" y="116.0009765625" type="line"/>
			<point x="603" y="544" type="line"/>
			<point x="556" y="658" type="line"/>
			<point x="546" y="658" type="line"/>
			<point x="461" y="544" type="line"/>
			<point x="91.8065795898" y="121.0009765625" type="line"/>
			<point x="315.0001220703" y="101.0009765625" type="line"/>
			<point x="304.681640625" y="0" type="line"/>
		</contour>
	</outline>
	<anchor name="bottom" x="453" y="0"/>
	<anchor name="top" x="723" y="1500"/>
	<anchor name="cy_descender" x="1125" y="100"/>
	<anchor name="center" x="591" y="791"/>
</glyph>
<glyph name="Y" format="2">
	<unicode hex="0059"/>
	<advance width="1178"/>
	<outline>
		<contour>
			<point x="179.7969970703" y="0" type="line"/>
			<point x="191.1154785156" y="103.0009765625" type="line"/>
			<point x="390.5476074219" y="116.0009765625" type="line"/>
			<point x="509.4853515625" y="630.8891601562" type="line"/>
			<point x="364.6801147461" y="1018.2379760742" type="line"/>
			<point x="216.6450805664" y="1372.3588867188" type="line"/>
			<point x="48.5817871094" y="1384.3588867188" type="line"/>
			<point x="62.9403076172" y="1500" type="line"/>
			<point x="575.1830444336" y="1500" type="line"/>
			<point x="560.8245239258" y="1384.3588867188" type="line"/>
			<point x="400.1525878906" y="1373.3588867188" type="line"/>
			<point x="518.0697021484" y="1078.6546630859" type="line"/>
			<point x="639.4389648438" y="784.8154907227" type="line"/>
			<point x="640.4389648438" y="784.8154907227" type="line"/>
			<point x="858.7813720703" y="1062.6857910156" type="line"/>
			<point x="1093.3073120117" y="1368.3588867188" type="line"/>
			<point x="867.3748779297" y="1384.3588867188" type="line"/>
			<point x="881.7333984375" y="1500" type="line"/>
			<point x="1449.1558837891" y="1500" type="line"/>
			<point x="1434.7973632812" y="1384.3588867188" type="line"/>
			<point x="1230.7340698242" y="1368.3588867188" type="line"/>
			<point x="943.6853027344" y="1002.3684082031" type="line"/>
			<point x="678.865234375" y="653.6930541992" type="line"/>
			<point x="557.5476074219" y="116.0009765625" type="line"/>
			<point x="750.8275756836" y="103.0009765625" type="line"/>
			<point x="739.5090942383" y="0" type="line"/>
		</contour>
	</outline>
	<anchor name="bottom" x="443" y="0"/>
	<anchor name="top" x="731" y="1500"/>
	<anchor name="tonos" x="-13" y="1500"/>
	<anchor name="center" x="553" y="579"/>
</glyph>
<glyph name="Z" format="2">
	<unicode hex="005A"/>
	<advance width="988"/>
	<outline>
		<contour>
			<point x="-93.7445678711" y="0" type="line"/>
			<point x="-105.9667358398" y="114.6661376953" type="line"/>
			<point x="435.3823242188" y="812.946105957" type="line"/>
			<point x="860.8515014648" y="1375.6674194336" type="line"/>
			<point x="853.8515014648" y="1383.6674194336" type="line"/>
			<point x="400.9976806641" y="1383.6674194336" type="line"/>
			<point x="249.9666137695" y="1138.8620605469" type="line"/>
			<point x="141.7698364258" y="1138.8620605469" type="line"/>
			<point x="215.3112182617" y="1500" type="line"/>
			<point x="1082.1939086914" y="1500" type="line"/>
			<point x="1066.7495117188" y="1390.8894042969" type="line"/>
			<point x="541.3692626953" y="703.0824584961" type="line"/>
			<point x="89.8692016602" y="113.5548706055" type="line"/>
			<point x="91.8692016602" y="106.5548706055" type="line"/>
			<point x="576.827331543" y="106.5548706055" type="line"/>
			<point x="794.6478271484" y="336.1379394531" type="line"/>
			<point x="891.9249267578" y="336.1379394531" type="line"/>
			<point x="780.7487182617" y="0" type="line"/>
		</contour>
	</outline>
	<anchor name="bottom" x="383" y="0"/>
	<anchor name="top" x="643" y="1500"/>
	<anchor name="_liga" x="0" y="0"/>
</glyph>
<glyph name="b" format="2">
	<unicode hex="0062"/>
	<advance width="1017"/>
	<outline>
		<contour>
			<point x="56.4278564453" y="285" type="qcurve" smooth="yes"/>
			<point x="123.5944213867" y="594" type="line"/>
			<point x="272.8558349609" y="1404.7744140625" type="line"/>
			<point x="129.3403930664" y="1403.2592163086" type="line"/>
			<point x="159.9761352539" y="1486.8939819336" type="line"/>
			<point x="454.3262329102" y="1569.4091796875" type="line"/>
			<point x="486.8278808594" y="1534.5745239258" type="line"/>
			<point x="279.2642211914" y="585" type="line"/>
			<point x="198.09765625" y="167" type="line" smooth="yes"/>
			<point x="191.5900268555" y="132.0703125"/>
			<point x="228.2619018555" y="108.8618164062"/>
			<point x="276.096496582" y="108.8618164062" type="qcurve" smooth="yes"/>
			<point x="499.940246582" y="108.8618164062"/>
			<point x="779.6118774414" y="455.2034301758"/>
			<point x="771.760925293" y="707.0823974609" type="qcurve" smooth="yes"/>
			<point x="768.4552612305" y="787.4774169922"/>
			<point x="702.5243530273" y="824.7088623047"/>
			<point x="629.2677612305" y="824.7088623047" type="qcurve" smooth="yes"/>
			<point x="495.5067138672" y="824.7088623047"/>
			<point x="275.0587768555" y="693.0369262695"/>
			<point x="234.0818481445" y="662.5181274414" type="qcurve"/>
			<point x="247.2837524414" y="785.9887695312" type="line"/>
			<point x="263.1761474609" y="811.5809936523"/>
			<point x="602.4149169922" y="998.0823974609"/>
			<point x="713.346496582" y="998.0823974609" type="qcurve" smooth="yes"/>
			<point x="821.799987793" y="998.0823974609"/>
			<point x="941.0192260742" y="857.0823974609"/>
			<point x="946.5975341797" y="729.0823974609" type="qcurve" smooth="yes"/>
			<point x="956.927734375" y="424.2034301758"/>
			<point x="529.9163818359" y="-11"/>
			<point x="230.6842041016" y="-11" type="qcurve" smooth="yes"/>
			<point x="116.7736206055" y="-11"/>
			<point x="21.4278564453" y="128"/>
		</contour>
	</outline>
	<anchor name="bottom" x="571" y="0"/>
	<anchor name="top" x="571" y="1533"/>
</glyph>
<glyph name="c" format="2">
	<unicode hex="0063"/>
	<advance width="988"/>
	<outline>
		<contour>
			<point x="12.7803955078" y="505.473815918" type="qcurve" smooth="yes"/>
			<point x="59.9967041016" y="736.339050293"/>
			<point x="411.6608886719" y="1014.9476318359"/>
			<point x="621.8342285156" y="1014.9476318359" type="qcurve" smooth="yes"/>
			<point x="732.6487426758" y="1014.9476318359"/>
			<point x="868.8593139648" y="912.9476318359"/>
			<point x="868.8593139648" y="843.9476318359" type="qcurve" smooth="yes"/>
			<point x="868.8593139648" y="799.9476318359"/>
			<point x="806.1911010742" y="699.9476318359"/>
			<point x="739.6898193359" y="676.9476318359" type="qcurve"/>
			<point x="719.3560791016" y="689.9476318359" type="line"/>
			<point x="719.3560791016" y="926.9476318359" type="line" smooth="yes"/>
			<point x="719.3560791016" y="946.9476318359"/>
			<point x="632.3707275391" y="882.8997802734"/>
			<point x="580.0405273438" y="882.8997802734" type="qcurve" smooth="yes"/>
			<point x="429.2924194336" y="882.8997802734"/>
			<point x="227.9997558594" y="722.3931274414"/>
			<point x="186.7834472656" y="503.473815918" type="qcurve" smooth="yes"/>
			<point x="145.6212158203" y="283.6626586914"/>
			<point x="265.4976806641" y="169.1176757812"/>
			<point x="395.989074707" y="169.1176757812" type="qcurve" smooth="yes"/>
			<point x="552.6992797852" y="169.1176757812"/>
			<point x="734.1414794922" y="276.4428710938"/>
			<point x="789.9603271484" y="332.55859375" type="qcurve"/>
			<point x="846.641784668" y="272.5346679688" type="line"/>
			<point x="846.641784668" y="229.9296875" type="line"/>
			<point x="770.3728027344" y="169.8983154297"/>
			<point x="492.6694335938" y="-9"/>
			<point x="328.5446166992" y="-9" type="qcurve" smooth="yes"/>
			<point x="157.0383300781" y="-9"/>
			<point x="-31.9088745117" y="285.1896972656"/>
		</contour>
	</outline>
	<anchor name="bottom" x="343" y="0"/>
	<anchor name="top" x="600" y="1000"/>
</glyph>
<glyph name="d" format="2">
	<unicode hex="0064"/>
	<advance width="1022"/>
	<outline>
		<contour>
			<point x="-40.632019043" y="253.2703857422" type="qcurve" smooth="yes"/>
			<point x="-40.632019043" y="578.5682373047"/>
			<point x="391.1229858398" y="980.5593261719"/>
			<point x="669.6338500977" y="986.9879760742" type="qcurve" smooth="yes"/>
			<point x="704.4863891602" y="986.9879760742" type="line"/>
			<point x="777.4501953125" y="1390.7390136719" type="line"/>
			<point x="609.7380981445" y="1396.2993774414" type="line"/>
			<point x="639.373840332" y="1482.9341430664" type="line"/>
			<point x="944.542175293" y="1563.328125" type="line"/>
			<point x="983.543762207" y="1534.8268432617" type="line"/>
			<point x="779.8135375977" y="469" type="line"/>
			<point x="731.8587036133" y="157.7707519531" type="line"/>
			<point x="860.0258178711" y="169.1647338867" type="line"/>
			<point x="862.0258178711" y="75.3939819336" type="line"/>
			<point x="593.9780273438" y="-6" type="line"/>
			<point x="564.477355957" y="26.6682128906" type="line"/>
			<point x="573.167175293" y="194.9067382812" type="line"/>
			<point x="500.4065551758" y="96.4184570312"/>
			<point x="245.9817504883" y="-5"/>
			<point x="179.7887573242" y="-5" type="qcurve" smooth="yes"/>
			<point x="58.8421630859" y="-5"/>
			<point x="-40.632019043" y="142.1622314453"/>
		</contour>
		<contour>
			<point x="129.87109375" y="305.2703857422" type="qcurve" smooth="yes"/>
			<point x="129.87109375" y="227.51953125"/>
			<point x="188.2964477539" y="137.0942382812"/>
			<point x="257.5223388672" y="137.0942382812" type="qcurve" smooth="yes"/>
			<point x="382.8732910156" y="137.0942382812"/>
			<point x="590.331237793" y="305"/>
			<point x="617.1439819336" y="463" type="qcurve" smooth="yes"/>
			<point x="673.3428955078" y="789.2887573242" type="line"/>
			<point x="665.8636474609" y="817.2887573242"/>
			<point x="610.1895751953" y="840.2887573242"/>
			<point x="562.4214477539" y="840.2887573242" type="qcurve" smooth="yes"/>
			<point x="367.5034790039" y="840.2887573242"/>
			<point x="129.87109375" y="549.5682373047"/>
		</contour>
	</outline>
	<anchor name="bottom" x="604" y="0"/>
	<anchor name="center" x="876" y="1202"/>
	<anchor name="top" x="704" y="1534"/>
	<anchor name="topright" x="1076" y="1000"/>
	<anchor name="liga" x="1067" y="0"/>
</glyph>
<glyph name="l" format="2">
	<unicode hex="006C"/>
	<advance width="569"/>
	<outline>
		<contour>
			<point x="66.9868774414" y="-12" type="line"/>
			<point x="31.1527099609" y="36.8352661133" type="line"/>
			<point x="148.9859008789" y="604" type="line"/>
			<point x="287.2923583984" y="1395.9663085938" type="line"/>
			<point x="110.186340332" y="1402.2993774414" type="line"/>
			<point x="142.8220825195" y="1488.9341430664" type="line"/>
			<point x="454.3843383789" y="1573.1618041992" type="line"/>
			<point x="489.0526733398" y="1537.3271484375" type="line"/>
			<point x="301.6557006836" y="588" type="line"/>
			<point x="217.0189819336" y="148.998046875" type="line"/>
			<point x="406.5348510742" y="176.2102050781" type="line"/>
			<point x="406.5348510742" y="91.8485717773" type="line"/>
		</contour>
	</outline>
	<anchor name="bottom" x="201" y="0"/>
	<anchor name="center" x="236" y="770"/>
	<anchor name="top" x="436" y="1534"/>
	<anchor name="topright" x="492" y="1000"/>
	<anchor name="centerright" x="707" y="742"/>
	<anchor name="liga" x="567" y="0"/>
</glyph>
<glyph name="m" format="2">
	<unicode hex="006D"/>
	<advance width="1806"/>
	<outline>
		<contour>
			<point x="39.3338623047" y="-9.3338623047" type="line"/>
			<point x="37.6669921875" y="39.666015625" type="line"/>
			<point x="134.0004882812" y="490" type="line"/>
			<point x="189.4817504883" y="830.6304321289" type="line"/>
			<point x="66.0116577148" y="853.2363891602" type="line"/>
			<point x="67.5570678711" y="948.1887817383" type="line"/>
			<point x="340.2853393555" y="1002.582824707" type="line"/>
			<point x="359.1193847656" y="988.582824707" type="line"/>
			<point x="336.8763427734" y="701.8403930664" type="line"/>
			<point x="317.3370361328" y="632" type="line"/>
			<point x="219.3370361328" y="87" type="line"/>
			<point x="219.3370361328" y="15" type="line"/>
		</contour>
		<contour>
			<point x="659.3186035156" y="-1.8333129883" type="line"/>
			<point x="662.3186035156" y="67.1666870117" type="line"/>
			<point x="806.7887573242" y="775.7495117188" type="line" smooth="yes"/>
			<point x="806.9879760742" y="775.272644043"/>
			<point x="731.5286865234" y="844.7673950195"/>
			<point x="652.0404663086" y="844.7673950195" type="qcurve" smooth="yes"/>
			<point x="566.1964111328" y="844.7673950195"/>
			<point x="367.2534179688" y="703.9367675781"/>
			<point x="260.1073608398" y="591.7444458008" type="qcurve"/>
			<point x="274.1542358398" y="723.8157348633" type="line"/>
			<point x="335.869934082" y="805.0023193359"/>
			<point x="662.9396972656" y="1021.7495117188"/>
			<point x="769.6846923828" y="1021.7495117188" type="qcurve" smooth="yes"/>
			<point x="858.6342163086" y="1021.7495117188"/>
			<point x="993.5396728516" y="852.3534545898"/>
			<point x="973.2725219727" y="772.7495117188" type="qcurve" smooth="yes"/>
			<point x="834.3218994141" y="87.0010986328" type="line"/>
			<point x="832.6556396484" y="26.0006103516" type="line"/>
		</contour>
		<contour>
			<point x="1328.3775634766" y="-13.1669311523" type="line"/>
			<point x="1275.210144043" y="93.6680908203" type="line"/>
			<point x="1423.327331543" y="774.7688598633" type="line" smooth="yes"/>
			<point x="1424.526550293" y="775.6060180664"/>
			<point x="1347.3274536133" y="848.8372192383"/>
			<point x="1285.9131469727" y="848.8372192383" type="qcurve" smooth="yes"/>
			<point x="1192.8380126953" y="848.8372192383"/>
			<point x="989.8887329102" y="699.7141723633"/>
			<point x="899.9606323242" y="617.5308837891" type="qcurve"/>
			<point x="917.1042480469" y="754.582824707" type="line"/>
			<point x="949.9065551758" y="802.5698852539"/>
			<point x="1282.291015625" y="1021.582824707"/>
			<point x="1386.9459838867" y="1021.582824707" type="qcurve" smooth="yes"/>
			<point x="1472.9137573242" y="1021.582824707"/>
			<point x="1608.2363891602" y="852.2738037109"/>
			<point x="1588.9971313477" y="772.582824707" type="qcurve" smooth="yes"/>
			<point x="1451.788269043" y="145.998046875" type="line"/>
			<point x="1597.2890625" y="177.1799316406" type="line"/>
			<point x="1597.2890625" y="89.1818847656" type="line"/>
		</contour>
	</outline>
	<anchor name="bottom" x="958" y="0"/>
	<anchor name="top" x="958" y="1000"/>
	<anchor name="cy_descender" x="1572" y="134"/>
</glyph>
<glyph name="n" format="2">
	<unicode hex="006E"/>
	<advance width="1195"/>
	<outline>
		<contour>
			<point x="47.8173828125" y="-15.8168945312" type="line"/>
			<point x="42.037109375" y="44.1831054688" type="line"/>
			<point x="134.0004882812" y="490" type="line"/>
			<point x="189.6032104492" y="830.1033935547" type="line"/>
			<point x="66.0116577148" y="852.7093505859" type="line"/>
			<point x="67.5570678711" y="947.6617431641" type="line"/>
			<point x="338.78515625" y="999.6473388672" type="line"/>
			<point x="359.1193847656" y="985.6473388672" type="line"/>
			<point x="335.711730957" y="709.9346923828" type="line"/>
			<point x="332.2877807617" y="711.0557861328" type="line"/>
			<point x="218.0402832031" y="82.1831054688" type="line"/>
			<point x="223.8205566406" y="9.1831054688" type="line"/>
		</contour>
		<contour>
			<point x="723.7866210938" y="-6" type="line"/>
			<point x="682.7655029297" y="82" type="line"/>
			<point x="813.0980834961" y="691.4036254883" type="line" smooth="yes"/>
			<point x="827.4517822266" y="761.2056884766"/>
			<point x="759.1522827148" y="863.5700683594"/>
			<point x="693.20703125" y="863.5700683594" type="qcurve" smooth="yes"/>
			<point x="605.9174804688" y="863.5700683594"/>
			<point x="411.8922119141" y="749.4552612305"/>
			<point x="285.5596923828" y="626.1976318359" type="qcurve"/>
			<point x="293.3623046875" y="736.9087524414" type="line"/>
			<point x="355.9443969727" y="820.1647338867"/>
			<point x="687.5822143555" y="1024.0563354492"/>
			<point x="786.8142700195" y="1024.0563354492" type="qcurve" smooth="yes"/>
			<point x="879.2458496094" y="1024.0563354492"/>
			<point x="1011.6038818359" y="849.6473999023"/>
			<point x="995.6415405273" y="775.0563354492" type="qcurve" smooth="yes"/>
			<point x="860.5711669922" y="145.998046875" type="line"/>
			<point x="1005.6778564453" y="176.8768920898" type="line"/>
			<point x="1005.6778564453" y="88.8788452148" type="line"/>
		</contour>
	</outline>
	<anchor name="bottom" x="522" y="0"/>
	<anchor name="top" x="602" y="1000"/>
	<anchor name="liga" x="1173" y="0"/>
</glyph>
<glyph name="o" format="2">
	<unicode hex="006F"/>
	<advance width="1074"/>
	<outline>
		<contour>
			<point x="15.2280329385" y="561.0008544922" type="qcurve" smooth="yes"/>
			<point x="69.8022539079" y="781.7155151367"/>
			<point x="392.4841997087" y="1034.3977050781"/>
			<point x="599.1228105486" y="1019.9844970703" type="qcurve" smooth="yes"/>
			<point x="803.9490434587" y="1004.9973144531"/>
			<point x="994.1837846697" y="695.076171875"/>
			<point x="950.4774836221" y="496.0338745117" type="qcurve" smooth="yes"/>
			<point x="897.0517656267" y="247.498840332"/>
			<point x="568.4770585954" y="-32.6356201172"/>
			<point x="364.5006181658" y="-12.4290161133" type="qcurve" smooth="yes"/>
			<point x="171.9911577165" y="5.9782714844"/>
			<point x="-44.329765135" y="318.8125610352"/>
		</contour>
		<contour>
			<point x="201.3180597939" y="563.7282104492" type="qcurve" smooth="yes"/>
			<point x="144.11145579" y="360.7282104492"/>
			<point x="229.3452204385" y="108.0477905273"/>
			<point x="373.5644587197" y="93.8278198242" type="qcurve" smooth="yes"/>
			<point x="520.2544239788" y="81.3731741485"/>
			<point x="722.8744562783" y="321.0008544922"/>
			<point x="764.1408137002" y="517.0008544922" type="qcurve" smooth="yes"/>
			<point x="801.1408137002" y="689.0008544922"/>
			<point x="720.0924224384" y="888.7237330777"/>
			<point x="575.697759501" y="900.2249755859" type="qcurve" smooth="yes"/>
			<point x="434.8272761025" y="911.8701171875"/>
			<point x="250.7910212197" y="741.7282104492"/>
		</contour>
	</outline>
	<anchor name="bottom" x="358" y="0"/>
	<anchor name="center" x="461" y="500"/>
	<anchor name="ogonek" x="514" y="0"/>
	<anchor name="top" x="584" y="1000"/>
	<anchor name="topright" x="663" y="1000"/>
	<anchor name="GRKtop" x="584" y="1000"/>
	<anchor name="yu_dash" x="83" y="498"/>
</glyph>
<glyph name="q" format="2">
	<unicode hex="0071"/>
	<advance width="1092"/>
	<outline>
		<contour>
			<point x="-27.1979370117" y="278.2703857422" type="qcurve" smooth="yes"/>
			<point x="-38.5611572266" y="581.1493530273"/>
			<point x="427.0997314453" y="1005.5150146484"/>
			<point x="646.3510742188" y="1005.5150146484" type="qcurve" smooth="yes"/>
			<point x="698.00390625" y="1005.5150146484"/>
			<point x="766.9293823242" y="969.5150146484"/>
			<point x="793.7888183594" y="937.5150146484" type="qcurve"/>
			<point x="874.8192749023" y="1008.5150146484" type="line"/>
			<point x="897.3198242188" y="1008.5150146484" type="line"/>
			<point x="955.821105957" y="900.3455200195" type="line"/>
			<point x="854.8438720703" y="412" type="line"/>
			<point x="691.7525634766" y="-290.7744140625" type="line"/>
			<point x="826.7828979492" y="-295.2894287109" type="line"/>
			<point x="800.1471557617" y="-378.9241943359" type="line"/>
			<point x="540.8427734375" y="-402.1671142578" type="line"/>
			<point x="511.5077514648" y="-366.3324584961" type="line"/>
			<point x="647.6743774414" y="207" type="line"/>
			<point x="645.6743774414" y="207" type="line"/>
			<point x="537.5241699219" y="98"/>
			<point x="307.6544799805" y="15"/>
			<point x="231.326965332" y="15" type="qcurve" smooth="yes"/>
			<point x="98.1904296875" y="15"/>
			<point x="-21.4130249023" y="175.4981079102"/>
		</contour>
		<contour>
			<point x="139.9719238281" y="280.2703857422" type="qcurve" smooth="yes"/>
			<point x="142.6577758789" y="236.839050293"/>
			<point x="212.8641967773" y="160.7221679688"/>
			<point x="298.5162963867" y="160.7221679688" type="qcurve" smooth="yes"/>
			<point x="441.3833007812" y="160.7221679688"/>
			<point x="687.3654174805" y="330.1712036133"/>
			<point x="706.3408813477" y="483" type="qcurve" smooth="yes"/>
			<point x="767.0357666016" y="801.9554443359" type="line"/>
			<point x="756.3829345703" y="830.5752563477"/>
			<point x="673.83984375" y="865.9554443359"/>
			<point x="601.6087036133" y="865.9554443359" type="qcurve" smooth="yes"/>
			<point x="410.701965332" y="865.9554443359"/>
			<point x="132.1209716797" y="502.8356323242"/>
		</contour>
	</outline>
	<anchor name="bottom" x="594" y="0"/>
	<anchor name="top" x="594" y="1000"/>
</glyph>
<glyph name="r" format="2">
	<unicode hex="0072"/>
	<advance width="790"/>
	<outline>
		<contour>
			<point x="80.4071655273" y="-14.2224121094" type="line"/>
			<point x="37.3270874023" y="72.1797485352" type="line"/>
			<point x="151.0718994141" y="525.9689941406" type="line"/>
			<point x="181.2206420898" y="823.2268676758" type="line"/>
			<point x="39.1733398438" y="815.5633544922" type="line"/>
			<point x="39.71875" y="913.1826171875" type="line"/>
			<point x="252.4699707031" y="1001.0217895508" type="line"/>
			<point x="308.5905151367" y="1000.2117919922" type="line"/>
			<point x="335.2301635742" y="884.0800170898" type="line"/>
			<point x="358.4764404297" y="828.2727661133" type="line"/>
			<point x="226.8248901367" y="136.0279541016" type="line"/>
			<point x="357.0199584961" y="105.6859741211" type="line"/>
			<point x="353.0394287109" y="17.8067016602" type="line"/>
		</contour>
		<contour>
			<point x="632.4570437079" y="645.6429443359" type="line"/>
			<point x="618.0176708817" y="866.1776169115" type="line"/>
			<point x="516.9437281881" y="863.1776169115"/>
			<point x="369.9203529732" y="761.9904856428"/>
			<point x="250.249775123" y="616.0967453295" type="qcurve"/>
			<point x="251.8107299805" y="701.2758789062" type="line"/>
			<point x="347.5908865235" y="861.76266114"/>
			<point x="562.2311491356" y="1014.3629760742"/>
			<point x="672.7439575195" y="1014.3629760742" type="qcurve" smooth="yes"/>
			<point x="730.1976518242" y="1014.3629760742"/>
			<point x="784.5557250977" y="980.2741148872"/>
			<point x="784.5557250977" y="935.1040039062" type="qcurve" smooth="yes"/>
			<point x="784.5557250977" y="855.1122690886"/>
			<point x="708.9740966202" y="641.936280466"/>
			<point x="652.821472168" y="641.3458862305" type="qcurve" smooth="yes"/>
		</contour>
	</outline>
	<anchor name="bottom" x="282" y="0"/>
	<anchor name="top" x="486" y="1000"/>
</glyph>
<glyph name="t" format="2">
	<unicode hex="0074"/>
	<advance width="563"/>
	<outline>
		<contour>
			<point x="57.2194824219" y="-13" type="line"/>
			<point x="27.7178344727" y="49" type="line"/>
			<point x="115.7178344727" y="503" type="line"/>
			<point x="189.0793457031" y="894.6290283203" type="line"/>
			<point x="50.2460327148" y="888.9625244141" type="line"/>
			<point x="53.0136108398" y="964.9864501953" type="line"/>
			<point x="200.0911254883" y="983.5234375"/>
			<point x="324.9283447266" y="1221.411315918"/>
			<point x="341.2905883789" y="1285.0557861328" type="qcurve"/>
			<point x="397.8373413086" y="1294.0557861328" type="line"/>
			<point x="415.8378295898" y="1283.8884887695" type="line"/>
			<point x="274.4460449219" y="486" type="line"/>
			<point x="210.9332275391" y="151.0437011719" type="line"/>
			<point x="424.2813110352" y="190.4377441406" type="line"/>
			<point x="424.2813110352" y="109.3940429688" type="line"/>
		</contour>
		<contour>
			<point x="266.5419311523" y="904.9161376953" type="line"/>
			<point x="291.5888061523" y="992.4517822266" type="line"/>
			<point x="593.602722168" y="1022.8707275391" type="line"/>
			<point x="582.9747924805" y="914.9161376953" type="line"/>
		</contour>
	</outline>
	<anchor name="bottom" x="149" y="0"/>
	<anchor name="center" x="262" y="622"/>
	<anchor name="top" x="322" y="1179"/>
	<anchor name="topright" x="600" y="920"/>
</glyph>
<glyph name="v" format="2">
	<unicode hex="0076"/>
	<advance width="1001"/>
	<outline>
		<contour>
			<point x="248.5662841797" y="8.8569335938" type="line"/>
			<point x="203.9720458984" y="496.4118041992" type="line"/>
			<point x="162.354309082" y="851.6788330078" type="line"/>
			<point x="19.7028808594" y="847.6180419922" type="line"/>
			<point x="17.2482910156" y="942.5704345703" type="line"/>
			<point x="278.8022460938" y="1003.0557861328" type="line"/>
			<point x="312.8034667969" y="988.0557861328" type="line"/>
			<point x="341.7267456055" y="565.5880126953" type="line"/>
			<point x="379.6179199219" y="268.4963378906" type="line"/>
			<point x="383.4583129883" y="187.1112670898" type="line"/>
			<point x="385.1400756836" y="187.1112670898" type="line"/>
			<point x="461.0297851562" y="273.6263427734" type="line"/>
			<point x="649.4653320312" y="488.4041137695"/>
			<point x="734.249206543" y="667.0750732422"/>
			<point x="734.249206543" y="759.4454345703" type="qcurve" smooth="yes"/>
			<point x="734.249206543" y="848.2440795898"/>
			<point x="696.8162231445" y="964.4870605469"/>
			<point x="623.8162231445" y="997.1159667969" type="qcurve" smooth="yes"/>
			<point x="646.8162231445" y="1010.2444458008"/>
			<point x="703.5347900391" y="1038.5236206055"/>
			<point x="731.4744873047" y="1038.5236206055" type="qcurve" smooth="yes"/>
			<point x="797.5718383789" y="1038.5236206055"/>
			<point x="908.7581176758" y="953.172668457"/>
			<point x="908.7581176758" y="860.643737793" type="qcurve" smooth="yes"/>
			<point x="908.7581176758" y="728.7992553711"/>
			<point x="601.9337768555" y="254.4686889648"/>
			<point x="343.2235717773" y="-9.1430664062" type="qcurve"/>
		</contour>
	</outline>
	<anchor name="bottom" x="513" y="0"/>
	<anchor name="top" x="513" y="1000"/>
</glyph>
<glyph name="x" format="2">
	<unicode hex="0078"/>
	<advance width="1031"/>
	<outline>
		<contour>
			<point x="-4.8807983398" y="69.2854003906" type="qcurve"/>
			<point x="-36.6845092773" y="90.4066162109" type="line"/>
			<point x="-18.6393432617" y="178.8135986328" type="line"/>
			<point x="69.4810180664" y="169.6923828125" type="line" smooth="yes"/>
			<point x="127.6885375977" y="145.4813232422"/>
			<point x="188.5500488281" y="154.6369018555"/>
			<point x="198.8834838867" y="166.3609008789" type="qcurve" smooth="yes"/>
			<point x="225.8727416992" y="197.2532958984"/>
			<point x="349.4362182617" y="376.733581543"/>
			<point x="422.0002441406" y="503.7352294922" type="qcurve"/>
			<point x="303.0975952148" y="856.1942138672" type="line"/>
			<point x="133.401184082" y="866.4669189453" type="line"/>
			<point x="134.9465942383" y="961.4193115234" type="line"/>
			<point x="400.1157226562" y="1010.0557861328" type="line"/>
			<point x="427.950378418" y="1005.0557861328" type="line"/>
			<point x="495.4737548828" y="774.83203125" type="line"/>
			<point x="513.6373291016" y="688.2336425781" type="line"/>
			<point x="514.6373291016" y="688.2336425781" type="line"/>
			<point x="561.1403198242" y="771.8159179688" type="line" smooth="yes"/>
			<point x="598.29296875" y="837.9709472656"/>
			<point x="632.2420043945" y="898.0442504883"/>
			<point x="657.7647705078" y="931.8438720703" type="qcurve" smooth="yes"/>
			<point x="680.4846191406" y="964.8262329102"/>
			<point x="787.1618041992" y="1017.3415527344"/>
			<point x="834.8539428711" y="1017.3415527344" type="qcurve" smooth="yes"/>
			<point x="890.4891357422" y="1017.3415527344"/>
			<point x="934.8120117188" y="955.3415527344"/>
			<point x="934.8120117188" y="908.3415527344" type="qcurve" smooth="yes"/>
			<point x="934.8120117188" y="854.3415527344"/>
			<point x="871.9483642578" y="768.3415527344"/>
			<point x="838.9483642578" y="761.3415527344" type="qcurve"/>
			<point x="823.9483642578" y="774.3415527344" type="line"/>
			<point x="822.2522583008" y="913.8466796875" type="line" smooth="yes"/>
			<point x="818.9282226562" y="891.5036621094"/>
			<point x="806.9866943359" y="898.1779785156"/>
			<point x="803.815612793" y="898.1779785156" type="qcurve" smooth="yes"/>
			<point x="788.3023071289" y="898.1779785156"/>
			<point x="722.7384643555" y="838.595703125"/>
			<point x="684.4354248047" y="775.7044677734" type="qcurve" smooth="yes"/>
			<point x="633.4379272461" y="693.0009155273"/>
			<point x="591.5739746094" y="616.0924682617"/>
			<point x="556.8657226562" y="548.131652832" type="qcurve"/>
			<point x="700.1919555664" y="136.4263305664" type="line"/>
			<point x="870.6459960938" y="163.7294311523" type="line"/>
			<point x="870.6459960938" y="70.7313842773" type="line"/>
			<point x="612.9085693359" y="-13.8217773438" type="line"/>
			<point x="570.5740966797" y="11.1782226562" type="line"/>
			<point x="481.9892578125" y="283.078918457" type="line"/>
			<point x="462.2521972656" y="362.4565429688" type="line"/>
			<point x="461.2521972656" y="362.4565429688" type="line"/>
			<point x="419.6810302734" y="285.5376586914" type="line"/>
			<point x="378.5159912109" y="200.1154174805"/>
			<point x="258.6956176758" y="24.2725830078"/>
			<point x="238.9404296875" y="33.5645751953" type="qcurve" smooth="yes"/>
			<point x="192.8032836914" y="15.163269043"/>
			<point x="79.0962524414" y="4.1921386719"/>
		</contour>
	</outline>
	<anchor name="bottom" x="522" y="0"/>
	<anchor name="top" x="522" y="1000"/>
	<anchor name="cy_descender" x="832" y="134"/>
	<anchor name="center" x="432" y="502"/>
</glyph>
<glyph name="y" format="2">
	<unicode hex="0079"/>
	<advance width="1058"/>
	<outline>
		<contour>
			<point x="-287.6336669922" y="-340.5" type="line"/>
			<point x="-275.6336669922" y="-316.5" type="line"/>
			<point x="-170.9740600586" y="-311.5" type="line" smooth="yes"/>
			<point x="-61.7237548828" y="-306.5"/>
			<point x="138.1259765625" y="-242.6172485352"/>
			<point x="220.8255004883" y="-144.3182373047" type="qcurve" smooth="yes"/>
			<point x="342.2971191406" y="7" type="line"/>
			<point x="298.0825805664" y="31" type="line"/>
			<point x="304.3084716797" y="42.2832641602"/>
			<point x="210.2863769531" y="738.1033935547"/>
			<point x="186.9635620117" y="858.1033935547" type="qcurve"/>
			<point x="34.6759033203" y="850.9517822266" type="line"/>
			<point x="32.2213134766" y="952.9041748047" type="line"/>
			<point x="272.1180419922" y="1005.0557861328" type="line"/>
			<point x="316.7858886719" y="1005.0557861328" type="line"/>
			<point x="353.7858886719" y="939.0557861328" type="line"/>
			<point x="437.9637451172" y="220.4414672852" type="line"/>
			<point x="449.497253418" y="121.8050537109" type="line"/>
			<point x="450.497253418" y="121.8050537109" type="line"/>
			<point x="514.7267456055" y="221.9705810547" type="line" smooth="yes"/>
			<point x="673.1936645508" y="469.0608520508"/>
			<point x="738.2825927734" y="669.5785522461"/>
			<point x="738.2825927734" y="788.5253295898" type="qcurve" smooth="yes"/>
			<point x="738.2825927734" y="833.5253295898"/>
			<point x="739.8247070312" y="925.5253295898"/>
			<point x="642.8247070312" y="996.5253295898" type="qcurve" smooth="yes"/>
			<point x="665.8247070312" y="1003.5253295898"/>
			<point x="711.9917602539" y="1010.5253295898"/>
			<point x="732.4919433594" y="1010.5253295898" type="qcurve" smooth="yes"/>
			<point x="801.8256835938" y="1010.5253295898"/>
			<point x="893.2880249023" y="938.5253295898"/>
			<point x="893.2880249023" y="877.5253295898" type="qcurve" smooth="yes"/>
			<point x="893.2880249023" y="758.2294921875"/>
			<point x="676.3908691406" y="232.7869873047"/>
			<point x="419.485534668" y="-73.6234741211" type="qcurve" smooth="yes"/>
			<point x="359.7200927734" y="-146.4189453125" type="line" smooth="yes"/>
			<point x="197.6207275391" y="-341.1834716797"/>
			<point x="-57.8143310547" y="-394.5"/>
			<point x="-141.6779785156" y="-400.5" type="qcurve"/>
		</contour>
	</outline>
	<anchor name="bottom" x="782" y="0"/>
	<anchor name="top" x="504" y="1000"/>
</glyph>
<glyph name="idotless" format="2">
	<unicode hex="0131"/>
	<advance width="584"/>
	<outline>
		<contour>
			<point x="93.1538696289" y="-14" type="line"/>
			<point x="38.3198242188" y="75.0017089844" type="line"/>
			<point x="158.7520751953" y="590.7442016602" type="line"/>
			<point x="196.1311035156" y="837.1033935547" type="line"/>
			<point x="55.1000366211" y="851.5275268555" type="line"/>
			<point x="59.6454467773" y="947.4799194336" type="line"/>
			<point x="357.46484375" y="1001.0557861328" type="line"/>
			<point x="393.2992553711" y="987.0557861328" type="line"/>
			<point x="385.1334228516" y="900.3868408203" type="line"/>
			<point x="349.9669799805" y="744.0557861328" type="line"/>
			<point x="290.4217529297" y="448.5770263672" type="line"/>
			<point x="229.9586791992" y="151.998046875" type="line"/>
			<point x="408.0504760742" y="173.5739135742" type="line"/>
			<point x="408.0504760742" y="85.5758666992" type="line"/>
		</contour>
	</outline>
	<anchor name="bottom" x="180" y="0"/>
	<anchor name="top" x="320" y="1000"/>
	<anchor name="ogonek" x="180" y="0"/>
	<anchor name="yu_dash" x="239" y="498"/>
	<anchor name="liga" x="618" y="0"/>
</glyph>
